<svg width="56" height="16" viewBox="0 0 56 16" fill="none" xmlns="http://www.w3.org/2000/svg">
<rect x="0.5" y="0.5" width="55" height="15" rx="3.5" fill="#00C4BD" fill-opacity="0.1"/>
<rect x="0.5" y="0.5" width="55" height="15" rx="3.5" stroke="#00C4BD"/>
<path d="M13.0445 7.29894C12.96 7.49682 12.7543 7.60992 12.5465 7.57282L12.0236 7.47946C11.3081 7.35167 10.7661 6.74703 10.7029 6.00615L10.6291 5.14304C10.6178 5.01212 10.437 4.99646 10.4045 5.12358L10.1188 6.24258C9.96016 6.86403 9.46201 7.33361 8.84407 7.44398L7.77631 7.63464C7.65006 7.65728 7.65006 7.84272 7.77631 7.86536L8.64491 8.02054C9.36039 8.14833 9.90242 8.75297 9.96569 9.49385L10.0394 10.357C10.0507 10.4879 10.2315 10.5035 10.2641 10.3764L10.5497 9.25742C10.7084 8.63597 11.2065 8.16639 11.8245 8.05602L12.4915 7.93679C12.718 7.89631 12.9386 8.03407 13.0072 8.25873L13.9035 11.1957C13.9496 11.3466 13.8395 11.5 13.6851 11.5H6.45777C6.19935 11.5 5.99216 11.2811 6.00023 11.0166L6.2005 4.45411C6.20822 4.20105 6.41079 4 6.65805 4H14.1042C14.2693 4 14.3801 4.17348 14.3139 4.32833L13.0445 7.29894Z" fill="#00C4BD"/>
<path d="M18.5918 6.89258H20.0273V4.85156H21.0332V10.7305H17.5664V4.85156H18.5918V6.89258ZM20.0273 9.85156V7.75195H18.5918V9.85156H20.0273ZM24.9102 12.8691H23.8652V8.34766H22.9277V12.4395H21.9023V4.19727H22.9277V7.44922H23.8652V4.04102H24.9102V12.8691ZM30.2426 8.97266H25.9848V4.77344H30.2426V8.97266ZM27.059 8.10352H29.1684V5.64258H27.059V8.10352ZM32.8891 10.3496H31.7953V4.05078H32.8891V10.3496ZM33.1332 12.6348H27.0492V9.75391H28.143V11.7559H33.1332V12.6348ZM40.8582 5.13477C40.8582 5.60352 40.8468 6.01367 40.824 6.36523C40.8045 6.7168 40.754 7.10091 40.6727 7.51758H41.8055V8.38672H33.7977V7.51758H39.5936C39.6456 7.24089 39.688 6.94954 39.7205 6.64355L34.6766 6.85352L34.5496 6.01367L39.7645 5.88672C39.771 5.74349 39.7742 5.53516 39.7742 5.26172H34.7742V4.40234H40.8582V5.13477ZM40.907 11.248H35.7801V11.9121H41.2195V12.7617H34.7059V10.457H39.823V9.85156H34.6863V9.02148H40.907V11.248ZM49.4133 8.91406H48.3293V6.67773H46.8254V5.78906H48.3293V4.05078H49.4133V8.91406ZM44.6184 10.1836H48.3391V9.29492H49.4133V12.7617H43.5344V9.29492H44.6184V10.1836ZM48.3391 11.8828V11.0332H44.6184V11.8828H48.3391ZM46.3371 6.94141H43.4562V7.85938C44.2017 7.85286 44.8413 7.83333 45.3752 7.80078C45.9123 7.76823 46.4576 7.70638 47.0109 7.61523L47.0891 8.49414C46.5227 8.58203 45.9644 8.64388 45.4143 8.67969C44.8641 8.71224 44.2245 8.72852 43.4953 8.72852H43.0754H42.382V6.13086H45.2727V5.26172H42.3625V4.39258H46.3371V6.94141Z" fill="#008C87"/>
</svg>
