<svg width="111" height="19" viewBox="0 0 111 19" fill="none" xmlns="http://www.w3.org/2000/svg">
<g filter="url(#filter0_d_1301_450)">
<path d="M9.70025 1C12.4617 1 14.7003 3.23858 14.7003 6C14.7003 8.76142 12.4617 11 9.70025 11C7.10763 11 4.97653 9.02661 4.72564 6.5H4.29986C4.05293 6.49965 3.91236 6.21718 4.0606 6.01953L4.96002 4.82031C5.08002 4.66031 5.32048 4.66031 5.44048 4.82031L6.3399 6.01953C6.48816 6.21722 6.34765 6.49975 6.10064 6.5H5.73248C5.97859 8.47306 7.66052 9.99997 9.70025 10C11.9094 10 13.7003 8.20914 13.7003 6C13.7003 3.79086 11.9094 2 9.70025 2C9.07364 2.00001 8.48187 2.14358 7.95514 2.39941C7.70683 2.52001 7.40691 2.41717 7.28619 2.16895C7.16557 1.92062 7.26939 1.62072 7.51764 1.5C8.17766 1.17936 8.91886 1.00001 9.70025 1ZM9.20025 3.5C9.4764 3.5 9.70025 3.72386 9.70025 4V6H11.7003C11.9764 6 12.2003 6.22386 12.2003 6.5C12.2003 6.77614 11.9764 7 11.7003 7H9.20025C8.92414 6.99996 8.70025 6.77612 8.70025 6.5V4C8.70025 3.72388 8.92414 3.50004 9.20025 3.5Z" fill="#007EFF"/>
</g>
<path d="M21.3711 6.02734V7.9375C22.373 7.89648 23.3984 7.80859 24.3594 7.66797L24.4297 8.34766C22.0508 8.78125 19.4844 8.79297 17.6094 8.79297L17.4805 8.03125C18.3535 8.02539 19.3848 8.01953 20.4688 7.98438V6.02734H21.3711ZM23.8203 1.90234V2.66406H21.3711C21.3945 4.01172 22.5137 5.10742 24.0547 5.54688L23.6211 6.27344C22.3672 5.89844 21.3887 5.0957 20.9258 4.03516C20.4688 5.1543 19.4961 5.98633 18.2422 6.36719L17.7969 5.66406C19.3379 5.21289 20.4219 4.07031 20.4453 2.66406H18.0547V1.90234H20.4688V0.613281H21.3711V1.90234H23.8203ZM25.9648 0.53125V10.9727H25.0508V0.53125H25.9648ZM35.7181 1.16406V1.97266C35.7181 2.8457 35.7181 3.90625 35.4486 5.32422H36.972V6.09766H27.433V5.32422H34.5228C34.8041 3.88281 34.8041 2.86328 34.8041 1.97266V1.91406H28.64V1.16406H35.7181ZM36.0345 9.94141V10.7148H28.6986V7.26953H29.6127V9.94141H36.0345ZM43.4708 1.51562V10H42.4044V2.61719H42.3575L40.295 3.98828V2.92188L42.4044 1.51562H43.4708ZM53.6342 0.542969V8.25391H52.7084V4.24609H50.2475V6.47266H45.5248V1.23438H46.4389V3.08594H49.3452V1.23438H50.2475V3.47266H52.7084V0.542969H53.6342ZM53.8686 9.95312V10.7266H46.8959V7.49219H47.8217V9.95312H53.8686ZM46.4389 5.71094H49.3452V3.8125H46.4389V5.71094ZM62.922 2.00781C62.9103 3.40234 64.7736 4.58594 66.59 4.85547L66.2502 5.58203C64.6213 5.30664 63.0392 4.43945 62.4064 3.17969C61.7736 4.43945 60.1857 5.30664 58.5861 5.58203L58.2228 4.85547C60.0275 4.58594 61.8908 3.40234 61.8908 2.00781V1.9375H58.5509V1.1875H66.2502V1.9375H62.922V2.00781ZM67.1525 6.47266V7.23438H62.84V10.9492H61.9377V7.23438H57.6603V6.47266H67.1525ZM77.1987 5.86328V6.625H72.9566V8.75781H72.0425V6.625H67.6597V5.86328H77.1987ZM75.9566 1.04688V4.66797H68.9019V1.04688H75.9566ZM69.8042 1.77344V3.92969H75.0425V1.77344H69.8042ZM76.1323 9.95312V10.7266H68.8784V7.72656H69.8042V9.95312H76.1323ZM85.827 0.542969V3.97656H87.3973V4.75H85.827V8.34766H84.913V0.542969H85.827ZM83.9169 1.82031V2.57031H77.7059V1.82031H80.3544V0.542969H81.2684V1.82031H83.9169ZM80.8114 3.14453C82.2997 3.14453 83.3075 3.90625 83.3192 5.08984C83.3075 6.26172 82.2997 7.01172 80.8114 7.01172C79.3114 7.01172 78.2919 6.26172 78.3036 5.08984C78.2919 3.90625 79.3114 3.14453 80.8114 3.14453ZM80.8114 3.87109C79.827 3.87109 79.1708 4.35156 79.1825 5.08984C79.1708 5.82812 79.827 6.29688 80.8114 6.28516C81.7841 6.29688 82.4403 5.82812 82.452 5.08984C82.4403 4.35156 81.7841 3.87109 80.8114 3.87109ZM86.3075 9.95312V10.7266H79.3114V7.72656H80.2137V9.95312H86.3075ZM98.4078 0.53125V4.77344H100.095V5.54688H98.4078V10.9492H97.4938V0.53125H98.4078ZM95.7125 1.65625C95.7125 4.60938 94.3297 7.29297 90.9313 8.96875L90.4156 8.24219C93.1109 6.90039 94.5758 4.89648 94.7867 2.42969H90.8961V1.65625H95.7125ZM109.274 0.53125V10.9492H108.395V0.53125H109.274ZM107.083 0.8125V10.4219H106.204V5.55859H104.001C103.362 6.77148 102.36 7.84375 100.907 8.69922L100.368 8.03125C102.636 6.68945 103.772 4.80859 103.942 2.62891H100.813V1.86719H104.856C104.851 2.89258 104.686 3.88281 104.341 4.80859H106.204V0.8125H107.083Z" fill="#007EFF"/>
<defs>
<filter id="filter0_d_1301_450" x="-1" y="0" width="20" height="20" filterUnits="userSpaceOnUse" color-interpolation-filters="sRGB">
<feFlood flood-opacity="0" result="BackgroundImageFix"/>
<feColorMatrix in="SourceAlpha" type="matrix" values="0 0 0 0 0 0 0 0 0 0 0 0 0 0 0 0 0 0 127 0" result="hardAlpha"/>
<feOffset dy="4"/>
<feGaussianBlur stdDeviation="2"/>
<feComposite in2="hardAlpha" operator="out"/>
<feColorMatrix type="matrix" values="0 0 0 0 0 0 0 0 0 0 0 0 0 0 0 0 0 0 0.25 0"/>
<feBlend mode="normal" in2="BackgroundImageFix" result="effect1_dropShadow_1301_450"/>
<feBlend mode="normal" in="SourceGraphic" in2="effect1_dropShadow_1301_450" result="shape"/>
</filter>
</defs>
</svg>
