<svg width="44" height="16" viewBox="0 0 44 16" fill="none" xmlns="http://www.w3.org/2000/svg">
<rect width="44" height="16" rx="4" fill="#F3F5F7"/>
<path d="M8.17383 4.43164C8.61654 4.42839 9.01367 4.50488 9.36523 4.66113C9.7168 4.81738 9.99186 5.03711 10.1904 5.32031C10.389 5.60352 10.4883 5.92578 10.4883 6.28711C10.4883 6.64193 10.389 6.96094 10.1904 7.24414C9.99186 7.52734 9.71517 7.74707 9.36035 7.90332C9.00879 8.05957 8.61328 8.13607 8.17383 8.13281C7.73763 8.13607 7.34375 8.05957 6.99219 7.90332C6.64388 7.74707 6.37044 7.52897 6.17188 7.24902C5.97656 6.96582 5.87891 6.64518 5.87891 6.28711C5.87891 5.92578 5.97656 5.60352 6.17188 5.32031C6.37044 5.03711 6.64388 4.81738 6.99219 4.66113C7.34049 4.50488 7.73438 4.42839 8.17383 4.43164ZM8.17383 5.31055C7.93294 5.30729 7.7181 5.34635 7.5293 5.42773C7.34049 5.50586 7.19238 5.61979 7.08496 5.76953C6.98079 5.91602 6.93034 6.08854 6.93359 6.28711C6.93034 6.48242 6.98079 6.65332 7.08496 6.7998C7.19238 6.94303 7.34049 7.05371 7.5293 7.13184C7.7181 7.20671 7.93294 7.24414 8.17383 7.24414C8.42448 7.24414 8.64583 7.20671 8.83789 7.13184C9.0332 7.05371 9.18457 6.94303 9.29199 6.7998C9.39941 6.65332 9.45312 6.48242 9.45312 6.28711C9.45312 6.08854 9.39941 5.91602 9.29199 5.76953C9.18457 5.61979 9.0332 5.50586 8.83789 5.42773C8.64583 5.34635 8.42448 5.30729 8.17383 5.31055ZM12.6758 12.8594H11.6016V4.05078H12.6758V12.8594ZM5.30273 8.73828C6.35742 8.73828 7.36328 8.71875 8.32031 8.67969C9.27734 8.63737 10.179 8.55273 11.0254 8.42578L11.1035 9.22656C10.4069 9.36003 9.63216 9.45931 8.7793 9.52441V12.5957H7.68555V9.58789C7.08659 9.61393 6.45833 9.62695 5.80078 9.62695C5.72266 9.63346 5.60221 9.63672 5.43945 9.63672L5.30273 8.73828ZM16.2895 5.68164C16.2895 6.00716 16.3529 6.32292 16.4799 6.62891C16.6068 6.9349 16.7989 7.20996 17.0561 7.4541C17.3165 7.69824 17.6339 7.89193 18.0082 8.03516L17.432 8.86523C17.0479 8.71875 16.7175 8.51204 16.4408 8.24512C16.1641 7.97819 15.9444 7.66732 15.7816 7.3125C15.6124 7.72266 15.3813 8.08561 15.0883 8.40137C14.7986 8.71712 14.4503 8.95964 14.0434 9.12891L13.4574 8.29883C13.8448 8.1263 14.1719 7.89844 14.4389 7.61523C14.7058 7.33203 14.906 7.02441 15.0395 6.69238C15.1729 6.3571 15.2413 6.02018 15.2445 5.68164V4.58789H16.2895V5.68164ZM21.0844 9.46094H20.0492V7.16602H19.1703V9.1875H18.1547V4.2168H19.1703V6.27734H20.0492V4.05078H21.0844V9.46094ZM18.1059 9.60742C18.7178 9.60742 19.2501 9.67253 19.7025 9.80273C20.1583 9.92969 20.5098 10.1152 20.7572 10.3594C21.0046 10.6035 21.1299 10.8932 21.1332 11.2285C21.1299 11.5638 21.0046 11.8535 20.7572 12.0977C20.5098 12.3451 20.1583 12.5339 19.7025 12.6641C19.2501 12.7943 18.7178 12.8594 18.1059 12.8594C17.4874 12.8594 16.9503 12.7943 16.4945 12.6641C16.0388 12.5339 15.6889 12.3451 15.4447 12.0977C15.2006 11.8535 15.0785 11.5638 15.0785 11.2285C15.0785 10.8932 15.2006 10.6035 15.4447 10.3594C15.6889 10.1152 16.0388 9.92969 16.4945 9.80273C16.9503 9.67253 17.4874 9.60742 18.1059 9.60742ZM18.1059 10.4277C17.4906 10.4277 17.0121 10.4977 16.6703 10.6377C16.3318 10.7744 16.1625 10.9714 16.1625 11.2285C16.1625 11.4889 16.3318 11.6875 16.6703 11.8242C17.0089 11.9609 17.4874 12.0293 18.1059 12.0293C18.7178 12.0293 19.1931 11.9609 19.5316 11.8242C19.8702 11.6875 20.0395 11.4889 20.0395 11.2285C20.0395 10.9714 19.8686 10.7744 19.5268 10.6377C19.1882 10.4977 18.7146 10.4277 18.1059 10.4277ZM29.1316 10.4277H28.0379V4.05078H29.1316V10.4277ZM29.3758 12.6934H23.2918V9.7832H24.3855V11.8145H29.3758V12.6934ZM24.3172 4.62695C24.7599 4.62695 25.1619 4.72298 25.5232 4.91504C25.8846 5.10384 26.1694 5.36589 26.3777 5.70117C26.5861 6.03646 26.6902 6.41406 26.6902 6.83398C26.6902 7.26042 26.5861 7.6429 26.3777 7.98145C26.1694 8.31673 25.8846 8.57878 25.5232 8.76758C25.1619 8.95638 24.7599 9.05078 24.3172 9.05078C23.8712 9.05078 23.466 8.95638 23.1014 8.76758C22.74 8.57878 22.4552 8.31673 22.2469 7.98145C22.0385 7.6429 21.9344 7.26042 21.9344 6.83398C21.9344 6.41406 22.0385 6.03646 22.2469 5.70117C22.4552 5.36589 22.74 5.10384 23.1014 4.91504C23.466 4.72298 23.8712 4.62695 24.3172 4.62695ZM24.3172 5.57422C24.0665 5.57422 23.8403 5.6263 23.6385 5.73047C23.4367 5.83464 23.2788 5.98275 23.1648 6.1748C23.0509 6.36686 22.9956 6.58659 22.9988 6.83398C22.9956 7.08789 23.0509 7.31087 23.1648 7.50293C23.2788 7.69499 23.4367 7.8431 23.6385 7.94727C23.8403 8.05143 24.0665 8.10352 24.3172 8.10352C24.5613 8.10352 24.7827 8.05143 24.9813 7.94727C25.1798 7.8431 25.3361 7.69499 25.45 7.50293C25.5672 7.31087 25.6258 7.08789 25.6258 6.83398C25.6258 6.58659 25.5672 6.36686 25.45 6.1748C25.3361 5.98275 25.1798 5.83464 24.9813 5.73047C24.7827 5.6263 24.5613 5.57422 24.3172 5.57422ZM38.0676 9.03125H30.0207V8.15234H38.0676V9.03125ZM34.0344 9.61719C34.6659 9.61719 35.2095 9.68066 35.6652 9.80762C36.1242 9.93457 36.4758 10.1201 36.7199 10.3643C36.9641 10.6084 37.0878 10.8997 37.091 11.2383C37.0878 11.5801 36.9641 11.8714 36.7199 12.1123C36.4758 12.3564 36.1258 12.542 35.6701 12.6689C35.2144 12.7959 34.6691 12.8594 34.0344 12.8594C33.3931 12.8594 32.8413 12.7959 32.3791 12.6689C31.9201 12.542 31.5686 12.3564 31.3244 12.1123C31.0803 11.8714 30.9582 11.5801 30.9582 11.2383C30.9582 10.8997 31.0803 10.6084 31.3244 10.3643C31.5686 10.1201 31.9217 9.93457 32.384 9.80762C32.8462 9.68066 33.3964 9.61719 34.0344 9.61719ZM34.0344 10.4668C33.3866 10.4668 32.8951 10.5319 32.5598 10.6621C32.2245 10.7923 32.0585 10.9844 32.0617 11.2383C32.0585 11.4922 32.2245 11.6842 32.5598 11.8145C32.8951 11.9447 33.3866 12.0098 34.0344 12.0098C34.6691 12.0098 35.1558 11.9447 35.4943 11.8145C35.8329 11.6842 36.0038 11.4922 36.007 11.2383C36.0038 10.9844 35.8329 10.7923 35.4943 10.6621C35.1558 10.5319 34.6691 10.4668 34.0344 10.4668ZM37.3449 5.34961H34.7961C34.8514 5.59701 35.0028 5.82975 35.2502 6.04785C35.4976 6.2627 35.8296 6.44661 36.2463 6.59961C36.6662 6.74935 37.1464 6.85026 37.6867 6.90234L37.3059 7.76172C36.5083 7.67708 35.8231 7.48665 35.2502 7.19043C34.6805 6.89095 34.2753 6.5166 34.0344 6.06738C33.7935 6.5166 33.3898 6.89095 32.8234 7.19043C32.257 7.48665 31.5767 7.67708 30.7824 7.76172L30.4113 6.90234C30.9419 6.85026 31.4139 6.74935 31.8273 6.59961C32.2408 6.44661 32.5712 6.2627 32.8186 6.04785C33.0692 5.82975 33.2222 5.59701 33.2775 5.34961H30.7531V4.46094H37.3449V5.34961Z" fill="#4B4D4E"/>
</svg>
