<svg width="44" height="16" viewBox="0 0 44 16" fill="none" xmlns="http://www.w3.org/2000/svg">
<rect width="44" height="16" rx="4" fill="#F3F5F7"/>
<path d="M13.3594 10.8965V11.7754H5.29297V10.8965H8.75V8.85547H9.82422V10.8965H13.3594ZM9.85352 5.22266C9.85352 6.56055 11.1914 7.87891 13.0469 8.17188L12.5781 9.07031C11.084 8.78711 9.86328 7.93262 9.27734 6.77539C8.69141 7.92773 7.48047 8.79688 5.99609 9.07031L5.52734 8.17188C7.37305 7.87891 8.69141 6.55078 8.70117 5.22266V4.57812H9.85352V5.22266ZM20.8793 4.04102V12.8789H19.7855V4.04102H20.8793ZM15.0883 4.76367V6.9707H17.227V4.76367H18.3012V10.7988H14.0043V4.76367H15.0883ZM15.0883 9.91016H17.227V7.82031H15.0883V9.91016ZM28.8777 4.55859V5.35938C28.8777 6.27734 28.8777 7.29785 28.5848 8.72852H29.825V9.60742H26.3484V12.8496H25.2547V9.60742H21.7781V8.72852H27.5105C27.6277 8.20605 27.7059 7.73242 27.7547 7.30273L22.6082 7.55664L22.4715 6.62891L27.823 6.47266C27.8377 6.10156 27.8377 5.75488 27.8426 5.42773H22.7449V4.55859H28.8777ZM37.3254 4.39258V5.27148H36.1145V6.96094H37.2766V7.81055H34.5812V8.71875H38.0676V9.57812H30.0207V8.71875H33.4875V7.81055H30.7922V6.96094H31.9543V5.27148H30.7434V4.39258H37.3254ZM37.1594 11.8145V12.6934H31.0168V10.2129H32.1008V11.8145H37.1594ZM33.0383 6.96094H35.0207V5.27148H33.0383V6.96094Z" fill="#4B4D4E"/>
</svg>
