<svg width="44" height="16" viewBox="0 0 44 16" fill="none" xmlns="http://www.w3.org/2000/svg">
<rect width="44" height="16" rx="4" fill="#F3F5F7"/>
<path d="M10.4688 5.59375H9.67773V8.00586C10.0358 7.98307 10.4232 7.95052 10.8398 7.9082L10.9082 8.70898C10.1107 8.82943 9.27897 8.91081 8.41309 8.95312C7.5472 8.99219 6.59505 9.01497 5.55664 9.02148L5.43945 8.12305L6.44531 8.11328V5.59375H5.67383V4.70508H10.4688V5.59375ZM12.6465 12.8691H11.5527V10.6816H6.62109V9.80273H12.6465V12.8691ZM12.6465 9.43164H11.5527V4.04102H12.6465V9.43164ZM7.49023 8.09863C8.00456 8.08561 8.38867 8.07259 8.64258 8.05957V5.59375H7.49023V8.09863ZM15.9867 4.43164C16.3643 4.42839 16.711 4.49512 17.0268 4.63184C17.3425 4.7653 17.6062 4.95573 17.8178 5.20312C18.0326 5.44727 18.1758 5.73047 18.2475 6.05273H19.8441V4.04102H20.9281V8.77734H19.8441V6.93164H18.2572C18.1856 7.26042 18.0424 7.55013 17.8275 7.80078C17.616 8.05143 17.3507 8.24674 17.0316 8.38672C16.7126 8.52344 16.3643 8.5918 15.9867 8.5918C15.5408 8.5918 15.1404 8.50228 14.7855 8.32324C14.4307 8.14421 14.1524 7.89681 13.9506 7.58105C13.752 7.26204 13.6527 6.90234 13.6527 6.50195C13.6527 6.10482 13.752 5.74837 13.9506 5.43262C14.1524 5.11686 14.4307 4.87109 14.7855 4.69531C15.1404 4.51628 15.5408 4.42839 15.9867 4.43164ZM15.9867 5.33984C15.7328 5.33984 15.5082 5.38704 15.3129 5.48145C15.1176 5.57585 14.9646 5.71094 14.8539 5.88672C14.7432 6.0625 14.6879 6.26758 14.6879 6.50195C14.6879 6.73307 14.7432 6.93815 14.8539 7.11719C14.9646 7.29297 15.1176 7.42969 15.3129 7.52734C15.5115 7.625 15.7361 7.67383 15.9867 7.67383C16.2309 7.67383 16.449 7.625 16.641 7.52734C16.8363 7.42969 16.9877 7.29297 17.0951 7.11719C17.2058 6.93815 17.2628 6.73307 17.266 6.50195C17.2628 6.26758 17.2058 6.0625 17.0951 5.88672C16.9877 5.71094 16.838 5.57585 16.6459 5.48145C16.4538 5.38704 16.2341 5.33984 15.9867 5.33984ZM16.182 10.125H19.8441V9.1875H20.9281V12.7617H15.1078V9.1875H16.182V10.125ZM19.8441 11.8828V10.9648H16.182V11.8828H19.8441ZM28.6922 7.48828H30.0008V8.39648H28.6922V12.8496H27.6082V4.04102H28.6922V7.48828ZM26.3582 4.95898C26.3582 7.85612 25.0203 9.96224 22.3445 11.2773L21.7293 10.4375C22.8035 9.90365 23.632 9.25749 24.2146 8.49902C24.8006 7.74056 25.1489 6.86003 25.2596 5.85742H22.2078V4.95898H26.3582ZM37.1594 7.21484H31.0656V4.19727H32.1496V6.33594H37.1594V7.21484ZM38.0773 8.94336H30.0207V8.06445H38.0773V8.94336ZM34.0344 9.57812C34.6691 9.58138 35.2144 9.64811 35.6701 9.77832C36.1258 9.90527 36.4758 10.0908 36.7199 10.335C36.9641 10.5758 37.0878 10.8672 37.091 11.209C37.0878 11.5508 36.9641 11.8421 36.7199 12.083C36.4758 12.3271 36.1258 12.5127 35.6701 12.6396C35.2144 12.7666 34.6691 12.8301 34.0344 12.8301C33.3931 12.8301 32.8413 12.7666 32.3791 12.6396C31.9201 12.5127 31.5686 12.3271 31.3244 12.083C31.0803 11.8421 30.9582 11.5508 30.9582 11.209C30.9582 10.8672 31.0803 10.5758 31.3244 10.335C31.5686 10.0908 31.9201 9.90527 32.3791 9.77832C32.8413 9.64811 33.3931 9.58138 34.0344 9.57812ZM34.0344 10.4277C32.7095 10.4375 32.052 10.6979 32.0617 11.209C32.0552 11.4629 32.2212 11.6582 32.5598 11.7949C32.8983 11.9316 33.3898 12 34.0344 12C34.6626 12 35.146 11.9316 35.4846 11.7949C35.8264 11.6582 36.0005 11.4629 36.007 11.209C35.9973 10.6979 35.3397 10.4375 34.0344 10.4277Z" fill="#4B4D4E"/>
</svg>
